<?xml version="1.0" encoding="UTF-8"?>
<svg width="18px" height="25px" viewBox="0 0 18 25" version="1.1" xmlns="http://www.w3.org/2000/svg" xmlns:xlink="http://www.w3.org/1999/xlink">
    <!-- Generator: Sketch 53.2 (72643) - https://sketchapp.com -->
    <title>Icon/ blog</title>
    <desc>Created with Sketch.</desc>
    <g id="Page-1" stroke="none" stroke-width="1" fill="none" fill-rule="evenodd">
        <g id="icons" transform="translate(-774.000000, -1567.000000)">
            <g id="Icon/-blog" transform="translate(770.000000, 1567.000000)">
                <g id="Blog-closed" transform="translate(4.000000, 0.000000)" fill="#2B2B2B" fill-rule="evenodd" stroke-width="1">
                    <g id="Group-15">
                        <g id="Group-16" fill-rule="nonzero">
                            <path d="M18,22.3211352 C18,22.8142466 17.5970563,23.2139924 17.1,23.2139924 L0.9,23.2139924 C0.402943725,23.2139924 -7.24531546e-14,22.8142466 -7.10542736e-14,22.3211352 L-7.10542736e-14,0.892563801 C-1.02828857e-13,0.399452417 0.402943725,-0.00029334223 0.9,-0.00029334223 L15.075,-0.00029334223 C16.6904329,-0.00029334223 18,1.29888037 18,2.90149237 L18,22.3211352 Z M16.2,2.90149237 C16.2,2.28510314 15.6963203,1.78542094 15.075,1.78542094 L1.8,1.78542094 L1.8,21.4282781 L16.2,21.4282781 L16.2,2.90149237 Z M15.0091339,25 L3.53413388,25 C3.0370776,25 2.63413388,24.6002542 2.63413388,24.1071429 L2.63413388,5.35714286 C2.63413388,4.86403147 3.0370776,4.46428571 3.53413388,4.46428571 L15.0091339,4.46428571 C16.0760981,4.46428571 16.3588792,4.09023656 16.1463793,2.82535624 L17.9341339,2.67857143 L17.9341339,22.0982143 C17.9341339,23.7008263 16.6245668,25 15.0091339,25 Z M16.1341339,2.67857143 C16.1341339,1.58255185 17.7402624,1.45067957 17.9218884,2.53178662 C18.2371819,4.40853346 17.5893886,5.69282906 16.1341339,6.10629418 L16.1341339,2.67857143 Z M3.15,3.57113523 C2.90147186,3.57113523 2.7,3.37126235 2.7,3.12470666 C2.7,2.87815097 2.90147186,2.67827809 3.15,2.67827809 L14.4,2.67827809 C14.6485281,2.67827809 14.85,2.87815097 14.85,3.12470666 C14.85,3.37126235 14.6485281,3.57113523 14.4,3.57113523 L3.15,3.57113523 Z" id="Oval-2" transform="translate(9.000000, 12.499853) rotate(180.000000) translate(-9.000000, -12.499853) "></path>
                        </g>
                    </g>
                </g>
                <rect id="Rectangle-Copy-3" x="0" y="0" width="26" height="26"></rect>
            </g>
        </g>
    </g>
</svg>