<?xml version="1.0" encoding="UTF-8"?>
<svg width="25px" height="24px" viewBox="0 0 25 24" version="1.1" xmlns="http://www.w3.org/2000/svg" xmlns:xlink="http://www.w3.org/1999/xlink">
    <!-- Generator: Sketch 53.2 (72643) - https://sketchapp.com -->
    <title>Icon/ blog open</title>
    <desc>Created with Sketch.</desc>
    <g id="Page-1" stroke="none" stroke-width="1" fill="none" fill-rule="evenodd">
        <g id="icons" transform="translate(-917.000000, -1568.000000)">
            <g id="Icon/-blog-open" transform="translate(917.000000, 1567.000000)">
                <rect id="Rectangle-Copy-4" x="0" y="0" width="26" height="26"></rect>
                <g id="Blog-icon" transform="translate(-2.000000, -2.000000)" fill="#000000" fill-rule="evenodd" stroke-width="1">
                    <g id="Group-7" transform="translate(2.531250, 2.485714)">
                        <g id="Group-6-Copy-2">
                            <path d="M21.9375,4.78371147 C22.4988349,4.97282108 23.0612678,5.20393531 23.625,5.47725497 L23.625,23.4363865 C22.1083915,22.7261716 20.4176289,22.3714286 18.5625,22.3714286 C18.1315637,22.3714286 17.7007403,22.3905436 17.2700754,22.4287312 L21.5467387,19.7561767 C21.7901168,19.6040858 21.9375,19.3404317 21.9375,19.0571429 L21.9375,4.78371177 Z M0,5.47725497 C1.83962878,4.58533018 3.66542104,4.14285714 5.484375,4.14285714 C7.30332896,4.14285714 9.12912122,4.58533018 10.96875,5.47725497 L10.96875,23.4363865 C9.45214152,22.7261716 7.76137885,22.3714286 5.90625,22.3714286 C3.93367441,22.3714286 1.96346494,22.7719409 0,23.5688967 L0,5.47725497 Z" id="Rectangle-Copy" fill-rule="nonzero"></path>
                            <polygon id="Path" points="12.65625 5.42626945 12.65625 23.3477565 20.25 18.602302 20.25 0.680814908"></polygon>
                        </g>
                    </g>
                </g>
            </g>
        </g>
    </g>
</svg>