<?xml version="1.0" encoding="UTF-8"?>
<svg width="28px" height="31px" viewBox="0 0 28 31" version="1.1" xmlns="http://www.w3.org/2000/svg" xmlns:xlink="http://www.w3.org/1999/xlink">
    <!-- Generator: Sketch 53.2 (72643) - https://sketchapp.com -->
    <title>Icon/ Loading</title>
    <desc>Created with Sketch.</desc>
    <g id="Page-1" stroke="none" stroke-width="1" fill="none" fill-rule="evenodd">
        <g id="icons" transform="translate(-1208.000000, -1561.000000)">
            <g id="Icon/-Loading" transform="translate(1207.000000, 1564.000000)">
                <g id="Load" transform="translate(-3.576923, -2.884615)" fill="#2B2B2B" fill-rule="nonzero">
                    <path d="M11.2878533,26.3542214 L11.2878533,22.5035463 C11.2878533,21.9280961 11.7810047,21.4616015 12.3893379,21.4616015 C12.997671,21.4616015 13.4908224,21.9280961 13.4908224,22.5035463 L13.4908224,28.4079004 C13.4908224,28.9833507 12.997671,29.4498453 12.3893379,29.4498453 L5.78043056,29.4498453 C5.17209744,29.4498453 4.67894601,28.9833507 4.67894601,28.4079004 C4.67894601,27.8324502 5.17209744,27.3659556 5.78043056,27.3659556 L9.15147669,27.3659556 C7.82145206,26.1204018 6.75500022,24.6158984 6.0345678,22.9404796 C5.34567758,21.3384146 4.98633586,19.6122062 4.98633586,17.8390005 C4.98633586,10.5409066 11.0603394,4.62463247 18.5530025,4.62463247 C26.0456656,4.62463247 32.1196692,10.5409066 32.1196692,17.8390005 C32.1196692,23.4016756 28.5581205,28.3107323 23.2948864,30.2234172 C22.725698,30.430263 22.0921276,30.1485084 21.8797672,29.5941007 C21.6674068,29.039693 21.9566731,28.4225751 22.5258614,28.2157293 C26.9353929,26.6132841 29.9196692,22.4999102 29.9196692,17.8390005 C29.9196692,11.7243813 24.8306392,6.76750296 18.5530025,6.76750296 C12.2753659,6.76750296 7.18633586,11.7243813 7.18633586,17.8390005 C7.18633586,19.3266875 7.48712251,20.7716087 8.06377134,22.1126481 C8.77388972,23.7640808 9.88645058,25.218484 11.2878533,26.3542214 Z" id="Combined-Shape" transform="translate(18.399308, 17.457966) scale(1, -1) rotate(330.000000) translate(-18.399308, -17.457966) "></path>
                </g>
                <rect id="Rectangle-Copy-6" x="0" y="0" width="31" height="30"></rect>
            </g>
        </g>
    </g>
</svg>